<?xml version="1.0" encoding="utf-8"?>
<!DOCTYPE svg PUBLIC "-//W3C//DTD SVG 20010904//EN" "http://www.w3.org/TR/2001/REC-SVG-20010904/DTD/svg10.dtd">
<svg version="1.0" xmlns="http://www.w3.org/2000/svg" width="432px" height="288px" viewBox="0 0 432 288" preserveAspectRatio="xMidYMid meet">
 <g fill="#f9f8f7">
  <path d="M0 144 l0 -144 216 0 216 0 0 144 0 144 -216 0 -216 0 0 -144z m236.6 125.3 c3.6 -2.1 8.8 -5.2 11.7 -7 5.3 -3.2 14.5 -8.7 25.1 -14.9 l5.8 -3.4 58.4 0 58.4 0 0 -41.5 0 -41.5 -34.7 -0.2 -34.8 -0.3 -0.3 -20.7 c-0.1 -11.5 -0.5 -20.8 -0.8 -20.8 -0.3 0 -15.1 8.7 -32.8 19.3 -17.6 10.5 -32.9 19.5 -33.8 19.9 -1.5 0.6 -1.8 2.1 -1.8 10.3 l0 9.5 -3.6 0 c-3.9 0 -3.8 1.5 0.2 3 1.3 0.5 3.2 2.3 4.2 4 l1.9 3 1.2 -2.3 c2.2 -4.1 6.9 -6 15.6 -6.5 6.8 -0.4 8.8 -0.1 12.8 1.8 4.4 2.1 4.7 2.5 4.7 6 0 2.2 -0.8 4.6 -2 5.9 -1.6 1.9 -2.7 2.2 -6.7 1.9 -2.6 -0.3 -5.7 -0.8 -6.7 -1.3 -1.3 -0.6 -1.7 -0.5 -1.3 0.2 0.4 0.6 3 1.6 5.7 2.2 9.3 2 12 5.5 12 15.3 0 10.4 -5.6 14.8 -19 14.8 -4.8 0 -9.5 -0.6 -11.5 -1.4 -3.1 -1.3 -3.5 -1.3 -3.5 0 0 1.1 -1.6 1.4 -7.4 1.4 l-7.5 0 -4.8 -8.5 c-2.6 -4.7 -5.1 -8.5 -5.5 -8.5 -0.5 0 -0.8 3.8 -0.8 8.5 l0 8.6 -6.7 -0.3 -6.8 -0.3 0 -23 0 -23 9.3 -0.3 9.2 -0.3 0 -4.5 0 -4.4 -4 2 c-6.2 3.2 -8.6 2.6 -17.9 -4 -4.6 -3.3 -8.8 -6 -9.3 -6 -0.4 0 -0.8 -1.9 -0.8 -4.3 0 -3.9 0.3 -4.5 3.3 -6 1.7 -0.9 6.1 -3.5 9.6 -5.7 3.4 -2.2 6.5 -4 6.7 -4 0.2 0 3.4 -1.9 7.1 -4.3 3.8 -2.4 10 -6.1 13.8 -8.2 3.9 -2.2 7.2 -4.3 7.3 -4.7 0.2 -0.4 0.8 -0.8 1.4 -0.8 0.5 0 3.3 -1.6 6.2 -3.5 2.9 -1.9 5.6 -3.5 5.9 -3.5 0.3 0 4.1 -2.2 8.5 -4.9 4.4 -2.7 8.3 -5 8.8 -5.2 0.5 -0.3 2.6 -1.5 4.7 -2.8 l3.7 -2.3 0 -17.4 c0 -9.6 -0.3 -17.4 -0.6 -17.4 -0.5 0 -4.2 2.1 -16.4 9.4 -1.9 1.2 -4.4 2.7 -5.5 3.3 -6.2 3.6 -48.6 28.9 -51.5 30.8 -9.3 5.9 -20.2 11.5 -22.4 11.5 -2.1 0 -7.2 -2.7 -11.1 -5.8 -0.5 -0.4 -3.1 -2.2 -5.7 -4 -4.3 -3 -4.8 -3.7 -4.8 -7.1 0 -3.7 0.2 -3.9 8.3 -8.6 4.5 -2.6 9.8 -5.8 11.7 -7 1.9 -1.2 5.3 -3.2 7.5 -4.5 2.2 -1.3 5.6 -3.3 7.5 -4.5 1.9 -1.2 8.8 -5.3 15.2 -9.1 6.5 -3.8 15.7 -9.2 20.5 -12.1 4.9 -2.9 10.5 -6.1 12.6 -7.3 2.7 -1.5 3.7 -2.7 3.7 -4.5 0 -2.6 -1.4 -3.3 -2.5 -1.4 -0.4 0.5 -1.7 1.4 -2.8 2 -1.2 0.5 -5.1 2.7 -8.7 4.8 -3.6 2.2 -9.4 5.6 -13 7.7 -3.6 2.1 -7.6 4.5 -9 5.4 -3.5 2.4 -52.2 31.4 -53.5 31.9 -2.6 1 -4.5 3.7 -4.5 6.5 -0.1 3.4 1.1 2.5 -18.5 14.1 l-11 6.5 -0.5 17.8 -0.5 17.7 -35 0.5 -35 0.5 0 41 0 41 59.3 0.3 59.4 0.2 4.5 3.3 c2.5 1.7 5.6 3.9 6.8 4.7 1.3 0.8 4.8 3.3 7.9 5.5 12.2 8.6 22.1 15.5 22.4 15.5 0.2 0 3.3 -1.7 6.8 -3.7z m23.9 -58.3 c2.2 -2.4 7 -2.6 11.4 -0.4 1.7 0.9 3.9 1.3 4.7 1 2.6 -1 0.6 -2.4 -4.5 -3.1 -5.6 -0.8 -11.1 -3.8 -11.8 -6.5 -0.5 -1.7 -0.9 -1.4 -3 1.7 -2.1 3.1 -2.3 3.9 -1.2 6.4 1.4 3.4 2 3.6 4.4 0.9z m-18.1 -15.6 c2.9 -1.1 1.6 -2.4 -2.4 -2.4 -2.9 0 -4 0.4 -4 1.5 0 1.6 3.5 2 6.4 0.9z"/>
  <path d="M98.5 224.1 c-5.4 -2.5 -8 -5.6 -10 -11.9 -2.4 -7.2 -1.7 -17.4 1.6 -23.3 3.6 -6.7 10.7 -9.9 21.3 -9.9 6.3 0.1 9.1 0.6 12.6 2.3 3.9 1.9 4.5 2.6 4.7 5.7 0.2 2.6 -0.4 4.3 -2.2 6.3 -2.7 3.1 -3.6 3.1 -14.5 1.2 -3.1 -0.6 -4 -0.3 -6.8 2.6 -4.1 4.2 -4.1 7.3 0 11.1 2.7 2.5 3.7 2.9 6.7 2.3 11 -1.9 11.9 -1.9 14.6 1.2 1.8 2 2.4 3.7 2.2 6.3 -0.2 2.9 -0.9 3.8 -4.2 5.7 -5.3 3 -19.8 3.2 -26 0.4z"/>
  <path d="M140.4 223.9 c-2.3 -1.2 -5.4 -4.1 -7.3 -6.9 -3.3 -4.8 -3.3 -4.9 -2.9 -15.2 0.3 -9.7 0.5 -10.7 3.1 -14.2 1.6 -2 4.6 -4.8 6.8 -6.1 3.3 -2.2 5 -2.5 12.6 -2.5 10.5 0 16 2.2 20.4 8.3 l2.9 4 0 -6.1 0 -6.2 7.5 0 7.5 0 0 13.8 c0 12.5 0.2 14 2 16 2.6 2.8 6.1 2.8 8.6 0.1 1.6 -1.8 1.9 -4 2.2 -16 l0.4 -14 6.6 0.3 6.7 0.3 0.3 17.6 c0.2 16.8 0.2 17.7 -2 20.9 -4.1 6 -7.1 7.5 -16 7.9 -12.4 0.5 -18.7 -2.1 -22.5 -9.3 l-1.5 -2.8 -2.4 3.6 c-1.4 2 -4.3 4.8 -6.4 6.1 -3.5 2.2 -5.1 2.5 -13.2 2.5 -7.4 0 -10.1 -0.4 -13.4 -2.1z m17.6 -14.8 c5.4 -5.4 4.5 -11.2 -2.3 -14.7 -2.7 -1.5 -3.2 -1.4 -5.6 0.4 -6 4.4 -6.5 9.9 -1.3 14.7 3.5 3.2 5.7 3.2 9.2 -0.4z"/>
  <path d="M296.4 224.7 c-0.2 -0.7 -0.3 -11.1 -0.2 -23.2 l0.3 -22 17.8 -0.3 17.7 -0.2 0 7 0 7 -10.5 0 c-8.7 0 -10.5 0.3 -10.5 1.5 0 1.2 1.6 1.5 8 1.5 l8 0 0 6.5 0 6.5 -8.6 0 c-6.4 0 -8.5 0.3 -8.2 1.3 0.3 0.8 3.7 1.3 11.1 1.5 l10.7 0.3 0 6.9 0 7 -17.5 0 c-13.3 0 -17.7 -0.3 -18.1 -1.3z"/>
  <path d="M337.3 223.9 c-4 -2 -4.3 -2.4 -4.3 -6.3 0.1 -5.6 2.7 -8.6 7.4 -8.6 2 0 4.8 0.7 6.1 1.6 1.4 0.9 3.2 1.3 4.2 1 1.5 -0.6 1.5 -0.8 0.3 -1.6 -0.8 -0.5 -3.3 -1.2 -5.5 -1.6 -9.4 -1.5 -13.4 -7.3 -12 -17.4 1.2 -8.5 6.8 -12 19.3 -12 10.7 0 14.6 2.1 15 8 0.3 3.3 -0.2 4.8 -1.9 6.6 -1.2 1.3 -3 2.4 -3.8 2.4 -0.9 0 -0.2 0.9 1.6 2 4.7 2.9 6.6 7.2 6.1 14.1 -0.7 10.1 -6.2 13.9 -20 13.9 -6.4 0 -9.3 -0.5 -12.5 -2.1z"/>
  <path d="M159.5 143.4 c-11.5 -7.7 -13.5 -9.7 -13.5 -13.4 0 -3.4 0.4 -3.7 8.9 -8.7 6.3 -3.8 9.8 -5.3 12.5 -5.3 l3.6 0 0 15 0 15 -3.8 0 c-2.4 0 -5.2 -1 -7.7 -2.6z"/>
 </g>
 <g fill="#010101">
  <path d="M199 256.5 c-0.7 -0.8 -1.6 -1.5 -2.1 -1.5 -0.5 0 -3.2 -1.8 -6.1 -4 l-5.3 -4 -58.9 0 c-32.5 0 -59.4 -0.4 -59.8 -0.8 -0.5 -0.5 -0.7 -20.4 -0.6 -44.3 l0.3 -43.4 35 -0.5 c32.5 -0.5 35 -0.6 34.9 -2.2 -0.1 -1.1 0.5 -1.8 1.7 -1.8 1.7 0 1.8 1.2 2.1 15.8 l0.3 15.7 -2.8 3.4 c-3.8 4.5 -4.7 7.2 -4.7 14.4 0 5.3 0.5 6.8 3.2 10.9 4.2 6.1 9.6 8.8 17.7 8.8 4.8 0 7 -0.5 10.1 -2.5 11.6 -7.3 13.3 -23.4 3.4 -33 l-4.4 -4.3 0 -18.5 c0 -15.5 -0.2 -18.6 -1.5 -19.1 -0.9 -0.3 -1.5 -1.8 -1.5 -3.7 l0 -3.1 3.4 2.1 c1.8 1.2 3.5 2.1 3.7 2.1 0.2 0 0.4 -5.4 0.4 -12 0 -10.9 -0.1 -11.9 -1.7 -11.4 -1.6 0.5 -1.8 -0.3 -1.8 -6.6 0 -5.4 0.4 -7.2 1.5 -7.6 0.9 -0.4 1.5 -1.9 1.5 -3.9 0 -1.9 0.8 -3.9 2 -5 2.3 -2.1 4.3 -1.5 10.3 3.3 2.8 2.2 3.3 3.1 2.2 3.6 -2.5 0.9 -1.7 2.4 3.3 5.8 2.6 1.8 5.2 3.6 5.7 4 4.6 3.7 8.4 5.5 9.9 4.6 1.6 -0.9 1.6 2.3 1 47.4 -0.4 26.6 -1 48.7 -1.5 49.2 -1.2 1.4 -7.7 -0.3 -9.9 -2.6 -1.8 -2 -2 -3.6 -2 -16 l0 -13.8 -4.5 0 -4.5 0 0 14.5 c0 15.5 0.6 18 5.2 22.1 2.9 2.7 8 4.4 12.9 4.4 l3.9 0 0 17.5 c0 9.6 -0.2 17.5 -0.4 17.5 -0.2 0 -0.9 -0.7 -1.6 -1.5z m-78 -35.5 c5.1 -2.6 5.2 -3 2.4 -6.3 l-2.4 -2.8 -4.6 1.6 c-5.8 2 -10.5 1.2 -14.4 -2.5 -2.9 -2.7 -3.5 -5 -3 -10.9 0.6 -7.5 9.8 -11.7 18.2 -8.4 3.7 1.5 3.8 1.4 6.2 -1.3 1.3 -1.6 2.2 -3.3 1.9 -3.7 -0.3 -0.5 -2.5 -1.7 -5 -2.8 -13.3 -5.7 -27.8 1.9 -29.9 15.9 -0.8 5 1.7 13.5 4.9 17.1 5.5 6 18 8 25.7 4.1z"/>
  <path d="M301.6 256.2 c-25.9 -0.2 -26.9 -0.3 -24.5 -2 2.2 -1.6 7.7 -1.7 64.4 -2.2 l62 -0.5 0 -49 0 -49 -35 -0.5 c-32.3 -0.5 -35 -0.6 -35.3 -2.3 -0.3 -1.6 2 -1.7 37.2 -1.7 l37.6 0 0 53.5 0 53.5 -15.2 0 c-8.4 0 -26.3 0.2 -39.8 0.3 -13.5 0.1 -36.6 0.1 -51.4 -0.1z"/>
  <path d="M57 202.5 l0 -53.4 21.8 -0.3 c11.9 -0.2 29 -0.2 38 0 14.8 0.2 16.3 0.4 16 2 -0.3 1.6 -3.1 1.7 -35.6 2 l-35.2 0.2 0 49.5 0 49.5 61.8 0 c59.9 0 61.8 0.1 64.7 2 l3 2 -67.2 0 -67.3 0 0 -53.5z"/>
  <path d="M280 245.4 c0 -1.7 3.6 -4.3 17 -12.3 l16.9 -10.1 7.6 0 7.5 0 0 -4 c0 -2.9 -0.4 -4 -1.5 -4 -1.3 0 -1.5 -2.1 -1.5 -12.5 0 -10.4 0.2 -12.5 1.5 -12.5 1.1 0 1.5 -1.1 1.5 -4 0 -2.9 -0.4 -4 -1.5 -4 -1.3 0 -1.5 -2.1 -1.5 -12.9 0 -12.8 1 -16.7 3.2 -12.7 0.8 1.4 4.5 1.6 35.3 1.6 l34.5 0 0 44.5 0 44.5 -59.5 0.2 -59.5 0.3 0 -2.1z m77.7 -23.5 c7.3 -2.7 10.9 -10 7.8 -15.8 -1.6 -3.3 -6.8 -7.1 -9.5 -7.1 -6.7 0 -11.7 -4.2 -9 -7.5 1.7 -2 8 -1.9 10.9 0.1 2.2 1.6 2.4 1.5 4.8 -0.9 1.4 -1.4 2.3 -3.2 2 -4 -0.8 -2.3 -7.1 -4.7 -12.1 -4.7 -11.4 0 -18.1 7.5 -15.2 16.7 0.9 2.8 5.9 5.9 11.1 6.8 10.8 1.8 11.6 9.5 1 9.5 -2 0 -5 -0.8 -6.5 -1.7 -2.8 -1.6 -2.9 -1.6 -4.9 0.8 -2.9 3.5 -2.6 4.4 2.2 6.8 4.6 2.3 12.7 2.8 17.4 1z"/>
 </g>
 <g fill="#ee4136">
  <path d="M227.8 276.9 c-1.6 -0.9 -1.8 -3.3 -1.8 -27.4 l0 -26.5 3 0 3 0 0 -8.5 0 -8.5 3.8 0 c3.6 0 3.8 0.2 8.5 8.5 l4.8 8.5 4.5 0 c4.3 0 5.6 -1.3 3.5 -3.6 -0.5 -0.5 -2.5 -3.7 -4.5 -7.1 l-3.5 -6.2 3.5 -3.5 c1.9 -1.9 3.4 -4.5 3.5 -5.8 0.6 -11.6 -3.6 -14.8 -19.8 -14.8 l-10.3 0 0 -6.5 c0 -6 0.2 -6.5 1.8 -5.6 1.3 0.7 3.2 0.2 7.9 -2.5 3.4 -1.9 6.4 -3.4 6.7 -3.4 0.3 0 0.6 3.7 0.6 8.3 l0.1 8.2 2.8 -3.3 c2.3 -2.7 3.3 -3.2 5.5 -2.6 l2.6 0.6 0 -9.5 c0 -9.4 0 -9.6 2.8 -11 1.5 -0.8 18.2 -10.7 37.2 -22 18.9 -11.4 34.5 -20.5 34.7 -20.4 0.3 0.3 0.5 34.1 0.4 57.9 l-0.1 11.7 -14.7 0.3 -14.8 0.3 0 20 0 20 10.8 0.5 10.7 0.5 -23.2 13.9 c-12.8 7.6 -24.9 14.9 -26.8 16.1 -1.9 1.3 -5.7 3.6 -8.5 5.2 -2.7 1.6 -6.5 3.8 -8.4 4.8 -1.8 1.1 -4.9 3 -6.7 4.2 -1.9 1.3 -6.7 4.1 -10.7 6.2 -5.5 3.1 -7.6 3.8 -8.9 3z m57.3 -55.9 c5 -2.6 7.4 -7.3 6.5 -12.5 -1 -4.9 -4.6 -8.1 -10.8 -9.4 -6.8 -1.5 -8.8 -2.8 -8.8 -5.5 0 -3.7 5.2 -4.8 11.6 -2.4 3 1.1 3.5 1 5.4 -1.2 1.1 -1.3 2 -2.6 2 -3 0 -0.4 -2.1 -1.8 -4.7 -3 -12 -5.6 -26.4 2.1 -23.7 12.7 1.1 4.6 5.5 7.8 12.1 8.8 4.9 0.7 8.3 2.8 8.3 5.1 0 4.2 -8.6 5.9 -14.4 2.9 -2.8 -1.5 -3.1 -1.5 -5.4 0.9 -2.9 2.9 -2.3 4.2 3.2 6.7 5.5 2.5 13.6 2.5 18.7 -0.1z"/>
  <path d="M318.5 215.1 l-11 -0.6 -0.3 -4.2 -0.3 -4.3 8.5 0 8.6 0 0 -3.5 0 -3.5 -8 0 c-7.6 0 -8 -0.1 -8.6 -2.4 -1.4 -5.7 -0.8 -6.1 10.8 -6.4 l10.7 -0.3 0.3 13.1 c0.2 7.1 0.3 12.9 0.3 12.8 0 -0.1 -4.9 -0.4 -11 -0.7z"/>
  <path d="M232.4 196.6 c-1.3 -5.4 -0.5 -6.1 7.5 -6.1 6.8 0 7.4 0.2 8.2 2.3 1.5 3.9 -2 6.2 -9.1 6.2 -5.5 0 -6 -0.2 -6.6 -2.4z"/>
  <path d="M202.9 156.6 c-4.4 -2.3 -4.4 -2.3 -4.1 -7.2 0.3 -5.1 0.5 -5.3 6.9 -9.2 l3.8 -2.3 -0.3 -12.7 -0.3 -12.8 4.3 -2.2 c2.4 -1.3 6.1 -3.4 8.3 -4.7 l4 -2.4 0.5 12.5 0.5 12.4 17.4 -10.5 c9.5 -5.8 17.5 -10.5 17.7 -10.5 0.3 0 2.3 -1.2 4.7 -2.7 8.8 -5.6 11.5 -7.2 19.9 -12.2 4.8 -2.8 9.4 -5.1 10.3 -5.1 1.2 0 1.5 1.5 1.5 8.9 l0 8.9 -3.7 2.3 c-2.1 1.3 -4.2 2.5 -4.7 2.8 -0.5 0.2 -4.4 2.5 -8.8 5.2 -4.4 2.7 -8.2 4.9 -8.5 4.9 -0.3 0 -3 1.6 -5.9 3.5 -2.9 1.9 -5.7 3.5 -6.2 3.5 -0.6 0 -1.2 0.4 -1.4 0.8 -0.1 0.4 -3.4 2.5 -7.3 4.7 -3.8 2.1 -10 5.8 -13.8 8.2 -3.7 2.4 -6.9 4.3 -7.1 4.3 -0.2 0 -3.3 1.8 -6.7 4 -3.5 2.2 -7.9 4.8 -9.6 5.7 -1.8 0.9 -3.3 2.3 -3.3 3 0 2 -3.2 1.6 -8.1 -1.1z"/>
 </g>
 <g fill="#414042">
  <path d="M158.7 227.9 c-3.2 -2.3 -5.7 -4.3 -5.4 -4.5 0.2 -0.3 2.1 -0.5 4.1 -0.6 2 -0.1 3.9 -0.5 4.2 -1 0.3 -0.4 1 -0.6 1.5 -0.3 0.5 0.4 0.9 0.1 0.9 -0.4 0 -0.6 0.5 -1.1 1 -1.1 0.6 0 1 2.7 1 6 0 3.3 -0.3 6 -0.7 5.9 -0.5 0 -3.4 -1.8 -6.6 -4z"/>
  <path d="M150.3 215.1 c-6.4 -1.8 -10.5 -9.9 -8.4 -16.4 1.7 -4.9 6.3 -8.7 10.7 -8.7 9.9 0 15.5 9.2 11.2 18.2 -2.7 5.5 -8.3 8.4 -13.5 6.9z"/>
  <path d="M137.1 174.4 c-0.1 -10.4 -0.6 -15.1 -1.4 -15.6 -0.9 -0.6 -0.9 -0.8 0.1 -0.8 0.7 0 1.2 -0.8 1.1 -1.7 -0.1 -1 -0.1 -9.1 0 -18 0.1 -15.2 0.2 -16.3 2.1 -17.3 1.7 -0.9 2.9 -0.5 7 2.1 4.5 2.9 6.5 5.9 4 5.9 -2.3 0 -0.6 2 5.2 6.1 3.3 2.4 6.8 5.2 7.6 6.1 0.9 0.9 1.9 1.5 2.3 1.2 0.5 -0.3 1 9.4 1.1 21.6 0.2 12.1 0.3 22 0.3 22 -0.1 0 -1.9 -0.9 -4 -2 -7.2 -3.7 -16.8 -2.4 -23.2 3.3 l-2.1 1.9 -0.1 -14.8z"/>
  <path d="M198.4 150.4 c0.3 -0.9 0.6 -8.4 0.6 -16.8 l0 -15.2 6.3 -3.6 6.2 -3.6 0.5 11.5 0.5 11.6 2.5 -3.2 c1.9 -2.6 3 -3.2 5.2 -2.9 l2.8 0.5 0 -12.1 0 -12.1 22.5 -13.5 c26.6 -15.9 28.8 -17.2 33.9 -20 2.1 -1.2 6.9 -4.1 10.7 -6.6 3.8 -2.4 7.1 -4.4 7.4 -4.4 0.3 0 0.5 6.7 0.5 14.9 l0 14.8 -3.7 2.5 c-2.1 1.4 -6.7 4.1 -10.3 6.2 -3.6 2 -8.7 5.1 -11.5 6.8 -2.7 1.7 -5.9 3.6 -7 4.2 -4 2.2 -52.1 30.9 -54.5 32.6 -1.4 0.9 -3.8 2.4 -5.5 3.3 -5.8 3.1 -6 3.4 -4.6 5.1 1.2 1.4 1 1.6 -0.9 1.6 -1.6 0 -2 -0.4 -1.6 -1.6z"/>
  <path d="M173.8 101.2 c-2.6 -2 -4.4 -4.1 -4.1 -4.9 0.3 -0.7 0.8 -1.3 1.2 -1.3 0.4 0 11.3 -6.3 24.2 -14.1 12.9 -7.8 25 -15 26.9 -16 1.9 -1.1 7.1 -4.2 11.5 -6.9 4.4 -2.7 10 -6.1 12.5 -7.5 2.5 -1.3 6.3 -3.6 8.5 -5 6.2 -3.8 11.3 -6.5 12.5 -6.5 0.6 0 0.9 2.5 0.8 6.7 l-0.3 6.7 -4.5 2.7 c-2.5 1.5 -8.1 4.8 -12.5 7.4 -9.8 5.6 -31.9 18.7 -36 21.3 -1.6 1.1 -4.8 2.9 -7 4.2 -2.2 1.3 -5.6 3.3 -7.5 4.5 -5.4 3.4 -21 12.5 -21.3 12.4 -0.1 0 -2.3 -1.7 -4.9 -3.7z"/>
 </g>
 <g fill="#bd1e2c">
  <path d="M219.4 271.1 c-5.4 -3.8 -12.5 -8.8 -15.6 -11 l-5.8 -4.1 0 -16.4 0 -16.3 4 -0.7 c4.5 -0.7 10.2 -5.2 11.9 -9.4 0.7 -1.7 1.1 -7.8 0.9 -16.7 l-0.3 -14 -3.7 -0.3 -3.6 -0.3 -0.4 14 c-0.3 12.5 -0.5 14.3 -2.3 16 -1.1 1 -3 2.2 -4.2 2.6 l-2.3 0.6 0 -32.4 c0 -17.8 0.3 -32.6 0.6 -33 0.4 -0.3 2.1 0.5 3.8 1.8 1.7 1.3 4.3 2.8 5.9 3.4 1.5 0.6 2.7 1.7 2.7 2.5 0 0.7 0.7 1.7 1.6 2 0.8 0.3 4.8 3 8.9 5.8 l7.3 5.3 0.4 5.7 c0.3 5.5 0.2 5.7 -2.2 6 l-2.5 0.3 0 20 0 20 2.5 0.3 2.5 0.3 -0.3 25.6 c-0.2 20 0 25.8 1 26.4 0.9 0.6 1 1.1 0.2 1.9 -0.7 0.7 -4 -1.1 -11 -5.9z"/>
 </g>
 <g fill="#6c6d70">
  <path d="M148 130.4 c0 -0.6 -2.2 -2.5 -5 -4.3 -2.7 -1.8 -5 -3.6 -5 -4 0 -0.4 1.5 -1.5 3.3 -2.4 1.7 -0.9 7.2 -4.2 12.2 -7.2 5 -3 10.1 -6.1 11.5 -6.9 l2.5 -1.4 -0.3 7.3 -0.4 7.4 -8.6 5.2 c-4.8 2.8 -9 5.7 -9.4 6.3 -0.5 0.7 -0.8 0.8 -0.8 0z"/>
 </g>
</svg>