<?xml version="1.0" encoding="utf-8"?>
<!DOCTYPE svg PUBLIC "-//W3C//DTD SVG 20010904//EN" "http://www.w3.org/TR/2001/REC-SVG-20010904/DTD/svg10.dtd">
<svg version="1.0" xmlns="http://www.w3.org/2000/svg" width="257px" height="159px" viewBox="0 0 257 159" preserveAspectRatio="xMidYMid meet">
 <g fill="#ffffff">
  <path d="M0 79.5 l0 -79.5 128.5 0 128.5 0 0 79.5 0 79.5 -128.5 0 -128.5 0 0 -79.5z m161.8 62.7 c0.8 -16.3 -6.5 -31.9 -18.4 -39.3 -4.2 -2.6 -4.5 -6.5 -0.9 -11.3 6 -7.9 6.9 -14.5 2.9 -22.4 -4.8 -9.6 -15.6 -15.7 -23.7 -13.2 -6.3 1.9 -11.5 5.7 -14.7 10.7 -5.4 8.4 -5.2 14.8 0.5 23.4 4.5 6.6 4.6 10.1 0.3 12.8 -8.9 5.4 -15.8 15.8 -17.7 26.5 -1.2 6.7 -1.5 17.9 -0.4 18.9 0.4 0.4 16.7 0.6 36.2 0.5 l35.6 -0.3 0.3 -6.3z m-81.9 -70.5 c0.8 -1 0.7 -1.7 -0.1 -2.5 -2.6 -2.6 -6 -0.4 -3.8 2.3 1.5 1.8 2.4 1.9 3.9 0.2z m95.1 -0.2 c1.3 -1.6 0.6 -3.5 -1.4 -3.5 -2.2 0 -3.7 2.5 -2.4 3.8 1.6 1.6 2.3 1.5 3.8 -0.3z m-81.1 -19.4 c1.2 -0.8 1.2 -1.2 0.2 -2.5 -1.5 -1.8 -3.7 -2.1 -4.6 -0.6 -0.7 1.1 1.1 4 2.4 4 0.3 0 1.2 -0.4 2 -0.9z m66.8 -0.2 c1.4 -1.4 0.6 -3.9 -1.2 -3.9 -0.7 0 -1.8 0.7 -2.6 1.6 -1 1.3 -1 1.7 0.2 2.5 1.8 1.1 2.3 1.1 3.6 -0.2z m-54.7 -20.4 c1.3 -1.6 0.6 -3.5 -1.5 -3.5 -1.8 0 -2.8 1.7 -2.1 3.5 0.7 1.9 2 1.9 3.6 0z m43 -1 c0 -0.7 -0.6 -1.8 -1.4 -2.4 -2 -1.7 -4.4 1.3 -2.6 3.3 1.3 1.7 4 1 4 -0.9z m-21.3 -5.9 c-0.8 -2 -3.6 -2.1 -4.3 -0.1 -0.4 0.8 0 2.2 0.7 3.1 1.1 1.3 1.4 1.3 2.7 0 0.8 -0.8 1.2 -2.2 0.9 -3z"/>
 </g>
 <g fill="#385184">
  <path d="M86.7 151.3 c-1.1 -1 -0.8 -18.3 0.4 -24.9 1.9 -10.7 8.8 -21.1 17.6 -26.5 l3.3 -2.1 -2.5 -3.2 c-7.9 -10.3 -7.6 -24.3 0.7 -34.1 3.5 -4.1 11.2 -7.8 17.4 -8.3 22.5 -1.9 35.9 24.1 21.9 42.4 l-2.5 3.2 3.4 2.1 c5.1 3.2 11.5 10.6 14.2 16.5 3.3 7.3 4.5 14.8 4.2 25.8 l-0.3 9.3 -38.6 0.3 c-21.2 0.1 -38.8 -0.1 -39.2 -0.5z"/>
  <path d="M99.8 56.9 c-2.1 -1.6 -3.2 -1.8 -4.7 -1 -3.2 1.8 -5.8 1.3 -8 -1.5 -2.6 -3.3 -2.7 -5.8 -0.1 -8.4 4.2 -4.2 11 -1.4 11 4.6 0 2.2 0.7 3.4 3 4.7 1.7 1 3 2.2 3 2.8 0 1.4 -1.2 1.1 -4.2 -1.2z"/>
  <path d="M147 58.1 c0 -0.6 1.4 -1.8 3 -2.8 2.3 -1.3 3 -2.4 3 -4.9 0 -5.9 6.9 -8.6 11 -4.2 2.7 2.9 2.5 5.4 -0.5 8.3 -2.6 2.7 -4.6 3.1 -7.6 1.5 -1.5 -0.9 -2.6 -0.6 -4.8 1 -3.2 2.2 -4.1 2.5 -4.1 1.1z"/>
 </g>
 <g fill="#f37121">
  <path d="M111.2 50 c-0.5 -1.4 -1.9 -4.7 -3 -7.5 -1.5 -3.8 -2.6 -5.1 -4.8 -5.7 -3.5 -0.9 -5.4 -3.3 -5.4 -6.8 0 -5.5 7 -8 11 -4 2.4 2.4 2.5 4.8 0.4 7.8 -1.4 2.1 -1.4 2.8 1.1 9.2 1.5 3.9 2.5 7.6 2.2 8.2 -0.3 0.8 -0.9 0.3 -1.5 -1.2z"/>
  <path d="M138 50.7 c0 -0.7 1.2 -4.2 2.6 -7.7 2.5 -6.2 2.5 -6.4 0.7 -9.7 -1.6 -3 -1.6 -3.6 -0.3 -6.1 3.1 -5.4 12 -3.4 12 2.7 0 3.6 -1 4.8 -5 6.5 -3 1.2 -3.9 2.4 -6 8.1 -2.5 6.6 -4 9 -4 6.2z"/>
 </g>
 <g fill="#56c0a4">
  <path d="M73.1 74.4 c-2.6 -3.3 -2.7 -5.8 -0.1 -8.4 2.8 -2.8 7.4 -2.6 9.8 0.5 1.7 2.2 2.8 2.5 8.1 2.5 3.4 0 6.1 0.4 6.1 1 0 0.6 -2.8 1 -6.5 1 -5 0 -6.5 0.3 -6.5 1.4 0 1.9 -3.9 4.6 -6.6 4.6 -1.3 0 -3.2 -1.2 -4.3 -2.6z"/>
  <path d="M169.2 75.4 c-1.2 -0.8 -2.2 -2.2 -2.2 -3 0 -1.1 -1.5 -1.4 -6.5 -1.4 -3.7 0 -6.5 -0.4 -6.5 -1 0 -0.6 2.7 -1 6.1 -1 5.3 0 6.4 -0.3 8.1 -2.5 2.4 -3.1 7 -3.3 9.8 -0.5 2.7 2.7 2.5 5.6 -0.5 8.5 -2.8 2.9 -5.1 3.1 -8.3 0.9z"/>
 </g>
 <g fill="#fab616">
  <path d="M124.6 48.3 c-0.3 -0.3 -0.6 -4 -0.6 -8.1 0 -6.7 -0.2 -7.6 -2.5 -9.4 -4.7 -3.7 -2 -11.8 4 -11.8 6 0 8.7 8.1 4 11.8 -2.3 1.8 -2.5 2.7 -2.5 9.5 0 7 -0.8 9.6 -2.4 8z"/>
 </g>
 <g fill="#7a8bad">
 </g>
</svg>