<?xml version="1.0" encoding="utf-8"?>
<!DOCTYPE svg PUBLIC "-//W3C//DTD SVG 20010904//EN" "http://www.w3.org/TR/2001/REC-SVG-20010904/DTD/svg10.dtd">
<svg version="1.0" xmlns="http://www.w3.org/2000/svg" width="315px" height="335px" viewBox="0 0 315 335" preserveAspectRatio="xMidYMid meet">
 <g fill="#ffbd00">
  <path d="M0 167.5 l0 -167.5 157.5 0 157.5 0 0 167.5 0 167.5 -157.5 0 -157.5 0 0 -167.5z m207.5 92.1 c5.5 -1.4 15.9 -4.5 23 -6.9 7.2 -2.4 16.2 -5 20 -5.8 7.6 -1.5 29.4 -1.9 36.3 -0.6 l4.2 0.7 0 -10.5 c0 -12.2 0.7 -11.4 -11.8 -13.5 -11.1 -1.8 -20.9 -0.1 -46 8.1 -22.8 7.5 -34.8 9.9 -49.3 9.9 l-8.5 0 -1.3 9.1 c-1.1 8.4 -1 9.3 0.6 11.2 1.6 1.8 2.7 1.9 12.3 1.4 6.3 -0.3 14.5 -1.6 20.5 -3.1z m-107 -14.6 c34.7 -3.9 64.4 -7.2 66.1 -7.5 l3.1 -0.5 0.6 -8.3 c0.3 -4.5 0.4 -8.3 0.3 -8.4 -0.1 -0.2 -31.5 2 -69.7 4.7 -38.2 2.8 -69.5 5 -69.6 5 -0.2 0 -0.3 5.2 -0.3 11.5 l0 11.6 3.3 -0.6 c1.7 -0.3 31.6 -3.6 66.2 -7.5z m98.5 -22.1 c3.6 -0.5 16 -4.1 27.5 -7.9 28.1 -9.1 29.2 -9.3 48.3 -8.8 l16.2 0.4 0 -9.8 0 -9.7 -4.2 -1.2 c-13.2 -3.5 -26 -2.7 -41.3 2.7 -32.8 11.6 -40.5 13.4 -56.8 13.4 -10.7 0 -13.1 -1.2 -13.5 -6.8 -0.6 -7.6 4 -7.2 -74.4 -7.2 l-69.8 0 0 11.5 c0 11.3 0 11.5 2.3 11.5 1.2 -0.1 34.6 -1.4 74.2 -2.9 39.6 -1.6 72.2 -2.7 72.4 -2.5 0.2 0.2 -0.1 3.8 -0.6 8.1 -0.7 5.1 -0.7 8.2 0 9.1 1.2 1.5 10.8 1.6 19.7 0.1z m-130.4 -51.3 c8.7 -2.3 8.9 -3.2 0.9 -2.8 -4.1 0.2 -8.6 0.1 -10 -0.2 -4.4 -1.1 -10.3 -7.3 -12.6 -13.4 -2.1 -5.3 -2.3 -7.7 -2.7 -37 -0.5 -35.9 -0.4 -36.6 6.2 -38.1 3.1 -0.7 0.8 -0.9 -10.4 -0.8 -8 0 -13.3 0.2 -11.9 0.4 1.5 0.2 3.5 1.3 4.5 2.5 1.7 1.8 1.9 4.7 2.5 34.7 0.6 34.5 0.9 37.1 5.8 44 3 4.1 8.9 8.3 14.6 10.3 6.1 2.1 6.7 2.1 13.1 0.4z m64.3 -6.3 c0.5 -2.1 1.6 -6.4 2.4 -9.5 l1.5 -5.8 -2.4 0 c-1.6 0 -2.5 -0.7 -2.9 -2.2 -0.3 -1.3 -3.2 -13.6 -6.5 -27.5 -6 -25.3 -7.5 -37.2 -4.8 -38.9 0.6 -0.4 2.5 -1.1 4.2 -1.5 1.7 -0.4 -7.2 -0.7 -19.9 -0.7 -13.2 0 -21.3 0.4 -19.1 0.8 4.8 0.9 6.6 3.1 6.7 8.4 l0.1 4.1 1 -4.5 c1.3 -6 2.3 -7 6.8 -7 2.9 0 4.3 0.6 5.7 2.4 1.1 1.4 5.9 18.2 12.2 43.2 5.7 22.5 10.6 41.2 10.8 41.7 1.1 1.9 3.3 0.3 4.2 -3z m40.4 2.3 c0.3 -0.8 0.9 -4.5 1.2 -8.2 0.6 -6.5 0.2 -8.6 -7.5 -36.9 -4.5 -16.5 -8.9 -32.5 -9.7 -35.5 l-1.6 -5.5 -2.3 9 c-2.9 11 -2.9 11.5 -0.5 11.5 2 0 2.5 0.9 3.6 7 0.6 3.1 13.1 55.6 14.1 58.8 0.5 1.6 2.1 1.5 2.7 -0.2z m34.7 -0.3 c0 -1 0.9 -12.6 2 -25.8 1.1 -13.2 2 -24.3 2 -24.7 0 -0.5 1.5 -0.8 3.3 -0.8 3.3 0 3.3 0.1 4.4 6.3 0.6 3.4 3.4 15.3 6.3 26.5 l5.3 20.3 6.1 -0.3 6.1 -0.3 5.7 -20.5 c3.2 -11.3 6.3 -23.1 6.9 -26.2 1.1 -5.7 1.2 -5.8 4.5 -5.8 2.8 0 3.4 0.4 3.4 2.1 0 3.7 3 44.3 3.6 47.7 l0.5 3.2 11.1 0 11.1 0 -0.6 -3.2 c-0.2 -1.8 -3.1 -22.1 -6.3 -45.1 l-5.8 -41.8 -12.5 0.3 -12.5 0.3 -5.3 21 c-2.8 11.6 -5.2 22.2 -5.3 23.7 0 4.6 -1 5.8 -4.4 5.8 l-3.3 0 -5.2 -23.2 c-2.9 -12.8 -5.5 -24.3 -5.8 -25.5 -0.5 -2.2 -0.9 -2.3 -12.9 -2.3 -12 0 -12.4 0.1 -12.9 2.3 -0.3 1.2 -3 20.4 -6 42.7 -3 22.3 -5.6 41.5 -5.8 42.8 -0.4 2.2 -0.3 2.2 10.9 2.2 10.2 0 11.4 -0.2 11.4 -1.7z m-115.3 -31 c-0.3 -1 -0.5 -0.2 -0.5 1.7 0 1.9 0.2 2.7 0.5 1.8 0.2 -1 0.2 -2.6 0 -3.5z"/>
 </g>
 <g fill="#000000">
  <path d="M171.6 264.1 c-1.6 -1.8 -1.8 -3.1 -1.3 -9.3 0.4 -4 1 -9 1.3 -11 l0.6 -3.7 -3.3 0.5 c-7 1 -136.2 15.4 -138.5 15.4 l-2.4 0 0 -14.4 0 -14.3 4.8 -0.5 c2.6 -0.3 35.8 -2.8 73.9 -5.4 l69.1 -4.9 0.4 -4 0.3 -4 -67.5 2.7 c-37.1 1.4 -70.5 2.7 -74.2 2.7 l-6.8 0.1 0 -14.5 0 -14.5 72.8 0 c81.5 0 77.2 -0.4 77.2 6.9 0 4.9 1.8 6.3 8.4 6.9 12.1 1 23.8 -1.8 56.1 -13.2 16.4 -5.8 33.2 -6.7 47.8 -2.6 l3.7 1.1 0 14 c0 12.9 -0.1 14 -1.7 13.5 -10 -3 -28.8 -3.5 -38.7 -1 -3.3 0.8 -14.9 4.4 -25.6 7.9 -21.8 7.1 -28.4 8.5 -41.7 8.5 -8.2 0 -9.3 -0.2 -10.7 -2.1 -1.3 -2 -1.5 -1.8 -2.2 3.7 -0.6 5.2 -0.5 5.9 1.6 7.6 5.4 4.4 26.4 1.3 55.4 -8.2 25.7 -8.4 36.5 -10.1 50.2 -8.2 4.6 0.7 9.6 1.7 10.9 2.2 l2.5 1 0 14.3 0 14.4 -5.2 -1.5 c-7.2 -2.1 -28 -2 -37.3 0.1 -3.8 0.9 -12.4 3.4 -19 5.7 -20.9 7.1 -30.5 9.2 -45.5 9.7 -12.8 0.5 -13.6 0.4 -15.4 -1.6z"/>
  <path d="M52.5 174.2 c-5.7 -2 -11.6 -6.2 -14.6 -10.3 -4.9 -6.9 -5.2 -9.5 -5.8 -44 -0.6 -30.3 -0.7 -32.8 -2.5 -34.8 -1.1 -1.2 -3 -2.1 -4.3 -2.1 -2 0 -2.3 -0.5 -2.3 -3.5 l0 -3.5 17 0 17 0 0 3.4 c0 3.1 -0.3 3.4 -3.9 4 -6.2 1 -6.4 2.3 -5.9 34.8 0.5 26.1 0.7 28.7 2.7 34 2.4 6.1 8.2 12.3 12.7 13.4 1.4 0.4 4.9 0.4 7.7 0.1 10.8 -1.3 16.9 -10.3 18.7 -27.6 1.1 -11.8 1.2 -39 0.1 -46.9 -0.9 -6.2 -1.8 -7.3 -6.8 -8.1 -3.4 -0.6 -3.8 -1 -4.1 -3.9 l-0.3 -3.2 26 0 26.1 0 0 3.5 c0 2.9 -0.4 3.5 -2.1 3.5 -3.9 0 -5.9 1.9 -5.9 5.6 0 3 12.3 57.1 13.2 58 0.2 0.1 4.3 -15.7 9.2 -35.2 8.8 -35.4 8.9 -35.5 11.4 -35.2 2.4 0.3 2.9 1.6 12.9 38.3 l10.3 38 -1 7.5 c-1.7 12.5 -1.5 12 -6.1 12 -2.3 0 -4.1 -0.5 -4.3 -1.2 -1 -3.2 -13.5 -55.7 -14.1 -58.8 -0.4 -1.9 -0.9 -4.4 -1.2 -5.5 -0.3 -1.1 -4.1 12.3 -8.9 31.5 -4.6 18.4 -8.3 33.6 -8.4 33.8 0 0.2 -2.1 0.2 -4.7 0 l-4.6 -0.3 -10.7 -41.8 c-11.4 -44.6 -12.8 -48.3 -16.7 -44.4 -1.6 1.6 -1.9 5 -2.4 33 -0.5 29 -0.7 31.6 -2.7 36.8 -4 10.1 -11.4 16.8 -21.5 19.5 -6.9 1.8 -13.1 1.7 -19.2 -0.4z"/>
  <path d="M182 170.2 c0 -2.2 11.8 -88.8 12.5 -92 0.5 -2.2 0.8 -2.2 15.9 -2.2 15.1 0 15.4 0 15.9 2.3 0.3 1.2 2.9 12.7 5.8 25.5 4.9 21.6 6.7 26.4 6.9 17.7 0.1 -1.6 2.5 -12.4 5.3 -24 l5.3 -21 15.5 -0.3 15.5 -0.2 6.2 45.2 c3.5 24.9 6.5 46.5 6.8 48.1 l0.6 2.7 -14.6 0 -14.5 0 -0.5 -3.2 c-0.5 -3.1 -3.5 -42.8 -3.7 -48 0 -1.2 -1.6 3.6 -3.4 10.7 -1.9 7.2 -5.1 19.1 -7.2 26.5 l-3.8 13.5 -9.1 0.3 -9.1 0.3 -5.3 -20.3 c-2.9 -11.2 -5.8 -23.2 -6.5 -26.8 -0.7 -3.6 -1.4 -6 -1.4 -5.5 -0.4 3.3 -4.1 49.3 -4.1 50.8 0 1.5 -1.4 1.7 -14.5 1.7 -13.3 0 -14.5 -0.2 -14.5 -1.8z"/>
 </g>
</svg>